<mxfile host="65bd71144e">
    <diagram id="5B_sO30YB8zPGPkABTFe" name="Page-1">
        <mxGraphModel dx="2258" dy="837" grid="1" gridSize="10" guides="1" tooltips="1" connect="1" arrows="1" fold="1" page="0" pageScale="1" pageWidth="827" pageHeight="1169" math="0" shadow="0">
            <root>
                <mxCell id="0"/>
                <mxCell id="1" parent="0"/>
                <mxCell id="118" value="Backend" style="shape=folder;fontStyle=1;tabWidth=100;tabHeight=40;tabPosition=left;html=1;boundedLbl=1;labelInHeader=1;container=0;collapsible=0;recursiveResize=0;fillColor=none;" parent="1" vertex="1">
                    <mxGeometry x="1350" y="710" width="250" height="1170" as="geometry"/>
                </mxCell>
                <mxCell id="82" value="Wordpress" style="shape=folder;fontStyle=1;tabWidth=140;tabHeight=30;tabPosition=left;html=1;boundedLbl=1;labelInHeader=1;container=1;collapsible=0;recursiveResize=0;fontColor=#FFFFFF;strokeColor=#FFFFFF;strokeWidth=1;fillColor=none;" parent="1" vertex="1">
                    <mxGeometry x="720" y="1050" width="200" height="194" as="geometry"/>
                </mxCell>
                <mxCell id="50" style="edgeStyle=orthogonalEdgeStyle;html=1;fontColor=#F7F7F7;startArrow=none;startFill=0;endArrow=classic;endFill=1;strokeWidth=3;elbow=vertical;fillColor=#1ba1e2;strokeColor=#006EAF;entryX=0;entryY=0;entryDx=0;entryDy=60;entryPerimeter=0;" parent="1" source="3" target="17" edge="1">
                    <mxGeometry relative="1" as="geometry">
                        <Array as="points">
                            <mxPoint x="640" y="840"/>
                            <mxPoint x="640" y="960"/>
                        </Array>
                        <mxPoint x="800" y="960" as="targetPoint"/>
                    </mxGeometry>
                </mxCell>
                <mxCell id="96" style="edgeStyle=orthogonalEdgeStyle;html=1;entryX=0;entryY=0;entryDx=0;entryDy=100;entryPerimeter=0;fontSize=16;fontColor=#FFFFFF;startArrow=none;startFill=0;endArrow=classic;endFill=1;strokeWidth=3;elbow=vertical;fillColor=#1ba1e2;strokeColor=#006EAF;" parent="1" source="3" target="18" edge="1">
                    <mxGeometry relative="1" as="geometry">
                        <Array as="points">
                            <mxPoint x="640" y="840"/>
                            <mxPoint x="640" y="470"/>
                        </Array>
                    </mxGeometry>
                </mxCell>
                <mxCell id="103" style="edgeStyle=orthogonalEdgeStyle;html=1;fontColor=#FFFFFF;fillColor=#1ba1e2;strokeColor=#006EAF;strokeWidth=3;" parent="1" source="3" edge="1">
                    <mxGeometry relative="1" as="geometry">
                        <Array as="points">
                            <mxPoint x="640" y="840"/>
                            <mxPoint x="640" y="1170"/>
                        </Array>
                        <mxPoint x="720" y="1170" as="targetPoint"/>
                    </mxGeometry>
                </mxCell>
                <mxCell id="3" value="Living Style Guide" style="shape=folder;fontStyle=1;tabWidth=120;tabHeight=40;tabPosition=left;html=1;boundedLbl=1;labelInHeader=1;container=1;collapsible=0;recursiveResize=0;fillColor=none;strokeColor=#006EAF;strokeWidth=3;fontColor=#ffffff;" parent="1" vertex="1">
                    <mxGeometry x="400" y="740" width="160" height="120" as="geometry"/>
                </mxCell>
                <mxCell id="51" style="edgeStyle=orthogonalEdgeStyle;html=1;fontColor=#F7F7F7;startArrow=none;startFill=0;endArrow=classic;endFill=1;strokeWidth=3;elbow=vertical;fillColor=#e3c800;strokeColor=#B09500;entryX=0;entryY=0;entryDx=0;entryDy=80;entryPerimeter=0;" parent="1" source="5" target="17" edge="1">
                    <mxGeometry relative="1" as="geometry">
                        <Array as="points">
                            <mxPoint x="640" y="1020"/>
                            <mxPoint x="640" y="980"/>
                        </Array>
                    </mxGeometry>
                </mxCell>
                <mxCell id="52" style="edgeStyle=orthogonalEdgeStyle;html=1;fontColor=#F7F7F7;startArrow=none;startFill=0;endArrow=classic;endFill=1;strokeWidth=3;elbow=vertical;fillColor=#e3c800;strokeColor=#B09500;entryX=0;entryY=0.773;entryDx=0;entryDy=0;entryPerimeter=0;" parent="1" source="5" target="82" edge="1">
                    <mxGeometry relative="1" as="geometry">
                        <Array as="points">
                            <mxPoint x="640" y="1020"/>
                            <mxPoint x="640" y="1200"/>
                        </Array>
                        <mxPoint x="770" y="1200" as="targetPoint"/>
                    </mxGeometry>
                </mxCell>
                <mxCell id="95" style="edgeStyle=orthogonalEdgeStyle;html=1;entryX=0;entryY=0;entryDx=0;entryDy=80;entryPerimeter=0;fontSize=16;fontColor=#FFFFFF;startArrow=none;startFill=0;endArrow=classic;endFill=1;strokeWidth=3;elbow=vertical;fillColor=#e3c800;strokeColor=#B09500;" parent="1" source="5" target="18" edge="1">
                    <mxGeometry relative="1" as="geometry">
                        <Array as="points">
                            <mxPoint x="600" y="1020"/>
                            <mxPoint x="600" y="450"/>
                        </Array>
                    </mxGeometry>
                </mxCell>
                <mxCell id="5" value="Component Library" style="shape=folder;fontStyle=1;tabWidth=120;tabHeight=40;tabPosition=left;html=1;boundedLbl=1;labelInHeader=1;container=1;collapsible=0;recursiveResize=0;fillColor=none;strokeColor=#B09500;strokeWidth=3;fontColor=#FFFFFF;" parent="1" vertex="1">
                    <mxGeometry x="400" y="910" width="160" height="120" as="geometry"/>
                </mxCell>
                <mxCell id="15" style="edgeStyle=entityRelationEdgeStyle;html=1;entryX=0;entryY=0;entryDx=0;entryDy=80;entryPerimeter=0;dashed=1;endArrow=none;endFill=0;" parent="1" source="14" target="5" edge="1">
                    <mxGeometry relative="1" as="geometry"/>
                </mxCell>
                <mxCell id="14" value="&lt;b&gt;Tech-stack&lt;/b&gt;&lt;br&gt;HTML + JS&lt;br&gt;&lt;br&gt;- html advanced&lt;br&gt;- js advanced&amp;nbsp;" style="shape=note;whiteSpace=wrap;html=1;backgroundOutline=1;darkOpacity=0.05;align=left;verticalAlign=top;" parent="1" vertex="1">
                    <mxGeometry x="200" y="940" width="160" height="100" as="geometry"/>
                </mxCell>
                <mxCell id="123" style="edgeStyle=orthogonalEdgeStyle;html=1;strokeWidth=3;fillColor=#f0a30a;strokeColor=#BD7000;" parent="1" source="17" edge="1">
                    <mxGeometry relative="1" as="geometry">
                        <mxPoint x="1390" y="1000" as="targetPoint"/>
                        <Array as="points">
                            <mxPoint x="1380" y="1000"/>
                            <mxPoint x="1380" y="1000"/>
                        </Array>
                    </mxGeometry>
                </mxCell>
                <mxCell id="17" value="Front-end Style Guide" style="shape=folder;fontStyle=1;tabWidth=140;tabHeight=40;tabPosition=left;html=1;boundedLbl=1;labelInHeader=1;container=1;collapsible=0;recursiveResize=0;fillColor=none;strokeColor=#d79b00;strokeWidth=3;" parent="1" vertex="1">
                    <mxGeometry x="740" y="900" width="160" height="120" as="geometry"/>
                </mxCell>
                <mxCell id="36" style="edgeStyle=orthogonalEdgeStyle;html=1;fontColor=#F7F7F7;endArrow=none;endFill=0;strokeWidth=3;startArrow=classic;startFill=1;exitX=0;exitY=0;exitDx=0;exitDy=190;exitPerimeter=0;fillColor=#f8cecc;strokeColor=#b85450;entryX=0;entryY=0;entryDx=160;entryDy=80;entryPerimeter=0;" parent="1" source="19" target="32" edge="1">
                    <mxGeometry relative="1" as="geometry">
                        <mxPoint x="1343" y="1041" as="targetPoint"/>
                        <Array as="points">
                            <mxPoint x="680" y="730"/>
                            <mxPoint x="680" y="1150"/>
                        </Array>
                        <mxPoint x="1330" y="940" as="sourcePoint"/>
                    </mxGeometry>
                </mxCell>
                <mxCell id="122" value="" style="edgeStyle=orthogonalEdgeStyle;html=1;strokeWidth=3;fillColor=#e3c800;strokeColor=#B09500;" parent="1" source="19" edge="1">
                    <mxGeometry x="-0.0638" relative="1" as="geometry">
                        <mxPoint x="1390" y="840" as="targetPoint"/>
                        <Array as="points">
                            <mxPoint x="1270" y="840"/>
                            <mxPoint x="1270" y="840"/>
                        </Array>
                        <mxPoint as="offset"/>
                    </mxGeometry>
                </mxCell>
                <mxCell id="19" value="Static&lt;br&gt;" style="shape=folder;fontStyle=1;tabWidth=140;tabHeight=40;tabPosition=left;html=1;boundedLbl=1;labelInHeader=1;container=1;collapsible=0;recursiveResize=0;fillColor=none;strokeColor=#FFFFFF;strokeWidth=1;" parent="1" vertex="1">
                    <mxGeometry x="720" y="540" width="200" height="340" as="geometry"/>
                </mxCell>
                <mxCell id="105" value="Prototype" style="shape=folder;fontStyle=1;tabWidth=140;tabHeight=40;tabPosition=left;html=1;boundedLbl=1;labelInHeader=1;container=1;collapsible=0;recursiveResize=0;fillColor=none;strokeColor=#B09500;strokeWidth=3;fontColor=#F7F7F7;" parent="19" vertex="1">
                    <mxGeometry x="20" y="60" width="160" height="120" as="geometry"/>
                </mxCell>
                <mxCell id="108" value="Error" style="shape=folder;fontStyle=1;tabWidth=140;tabHeight=40;tabPosition=left;html=1;boundedLbl=1;labelInHeader=1;container=1;collapsible=0;recursiveResize=0;fillColor=none;strokeColor=#B09500;strokeWidth=3;fontColor=#F7F7F7;" parent="19" vertex="1">
                    <mxGeometry x="20" y="200" width="160" height="120" as="geometry"/>
                </mxCell>
                <mxCell id="21" style="edgeStyle=entityRelationEdgeStyle;html=1;entryX=0;entryY=0;entryDx=0;entryDy=110;entryPerimeter=0;dashed=1;endArrow=none;endFill=0;" parent="1" source="20" target="3" edge="1">
                    <mxGeometry relative="1" as="geometry"/>
                </mxCell>
                <mxCell id="20" value="&lt;b&gt;Tech-stack&lt;/b&gt;&lt;br&gt;Scss + SVG&lt;br&gt;&lt;br&gt;- css advanced&lt;br&gt;- css animations advanced&lt;br&gt;- css processors advanced" style="shape=note;whiteSpace=wrap;html=1;backgroundOutline=1;darkOpacity=0.05;align=left;verticalAlign=top;" parent="1" vertex="1">
                    <mxGeometry x="200" y="800" width="160" height="100" as="geometry"/>
                </mxCell>
                <mxCell id="120" style="edgeStyle=orthogonalEdgeStyle;html=1;fillColor=#dae8fc;strokeColor=#6c8ebf;strokeWidth=3;exitX=0;exitY=0;exitDx=200;exitDy=112;exitPerimeter=0;" parent="1" source="82" target="117" edge="1">
                    <mxGeometry relative="1" as="geometry">
                        <mxPoint x="980" y="1201" as="sourcePoint"/>
                        <Array as="points">
                            <mxPoint x="920" y="1160"/>
                        </Array>
                    </mxGeometry>
                </mxCell>
                <mxCell id="28" value="Landing Page" style="shape=folder;fontStyle=1;tabWidth=140;tabHeight=40;tabPosition=left;html=1;boundedLbl=1;labelInHeader=1;container=1;collapsible=0;recursiveResize=0;fillColor=none;strokeColor=#6c8ebf;strokeWidth=3;" parent="1" vertex="1">
                    <mxGeometry x="740" y="1100" width="160" height="120" as="geometry"/>
                </mxCell>
                <mxCell id="94" style="edgeStyle=orthogonalEdgeStyle;html=1;fontSize=16;fontColor=#FFFFFF;startArrow=none;startFill=0;endArrow=classic;endFill=1;strokeWidth=3;elbow=vertical;fillColor=#f8cecc;strokeColor=#b85450;exitX=0;exitY=0;exitDx=160;exitDy=80;exitPerimeter=0;entryX=-0.007;entryY=0.519;entryDx=0;entryDy=0;entryPerimeter=0;" parent="1" source="32" target="82" edge="1">
                    <mxGeometry relative="1" as="geometry">
                        <Array as="points">
                            <mxPoint x="700" y="1150"/>
                        </Array>
                        <mxPoint x="700" y="1150" as="targetPoint"/>
                    </mxGeometry>
                </mxCell>
                <mxCell id="32" value="Assets" style="shape=folder;fontStyle=1;tabWidth=140;tabHeight=40;tabPosition=left;html=1;boundedLbl=1;labelInHeader=1;container=1;collapsible=0;recursiveResize=0;fillColor=none;strokeColor=#b85450;strokeWidth=3;" parent="1" vertex="1">
                    <mxGeometry x="400" y="1070" width="160" height="120" as="geometry"/>
                </mxCell>
                <mxCell id="34" value="+ media, documents" style="text;html=1;strokeColor=none;fillColor=none;align=center;verticalAlign=middle;whiteSpace=wrap;rounded=0;fontColor=#F7F7F7;" parent="32" vertex="1">
                    <mxGeometry y="40" width="120" height="30" as="geometry"/>
                </mxCell>
                <mxCell id="70" value="&lt;span&gt;`+`public&lt;/span&gt;&lt;br&gt;&lt;span&gt;`-`private&lt;/span&gt;&lt;br&gt;&lt;span&gt;`~`package&lt;/span&gt;&lt;br&gt;&lt;span&gt;`#`protected&lt;/span&gt;" style="shape=note;size=20;whiteSpace=wrap;html=1;fontColor=#FFFFFF;strokeColor=#FFFFFF;strokeWidth=1;fillColor=none;align=left;verticalAlign=top;" parent="1" vertex="1">
                    <mxGeometry x="200" y="200" width="160" height="80" as="geometry"/>
                </mxCell>
                <mxCell id="85" value="&lt;div style=&quot;text-align: left&quot;&gt;&lt;span&gt;&lt;b&gt;&lt;font style=&quot;font-size: 27px&quot;&gt;Package Diagram&lt;/font&gt;&lt;/b&gt;&lt;/span&gt;&lt;/div&gt;&lt;div style=&quot;text-align: left&quot;&gt;&lt;span&gt;- structure diagram&lt;/span&gt;&lt;/div&gt;&lt;div style=&quot;text-align: left&quot;&gt;&lt;span&gt;- dependencies between different packages&lt;/span&gt;&lt;/div&gt;" style="text;html=1;align=center;verticalAlign=middle;resizable=0;points=[];autosize=1;strokeColor=none;fillColor=none;fontColor=#FFFFFF;" parent="1" vertex="1">
                    <mxGeometry x="200" y="120" width="250" height="50" as="geometry"/>
                </mxCell>
                <mxCell id="90" value="Wiiki" style="shape=folder;fontStyle=1;tabWidth=120;tabHeight=40;tabPosition=left;html=1;boundedLbl=1;labelInHeader=1;container=1;collapsible=0;recursiveResize=0;fillColor=none;" parent="1" vertex="1">
                    <mxGeometry x="380" y="1240" width="200" height="540" as="geometry"/>
                </mxCell>
                <mxCell id="16" value="Code Guidelines" style="shape=folder;fontStyle=1;tabWidth=120;tabHeight=40;tabPosition=left;html=1;boundedLbl=1;labelInHeader=1;container=1;collapsible=0;recursiveResize=0;fillColor=none;" parent="90" vertex="1">
                    <mxGeometry x="20" y="80" width="160" height="120" as="geometry"/>
                </mxCell>
                <mxCell id="91" value="Architecture" style="shape=folder;fontStyle=1;tabWidth=120;tabHeight=40;tabPosition=left;html=1;boundedLbl=1;labelInHeader=1;container=1;collapsible=0;recursiveResize=0;fillColor=none;" parent="90" vertex="1">
                    <mxGeometry x="20" y="250" width="160" height="120" as="geometry"/>
                </mxCell>
                <mxCell id="92" value="Branching Strategy" style="shape=folder;fontStyle=1;tabWidth=120;tabHeight=40;tabPosition=left;html=1;boundedLbl=1;labelInHeader=1;container=1;collapsible=0;recursiveResize=0;fillColor=none;" parent="90" vertex="1">
                    <mxGeometry x="20" y="400" width="160" height="120" as="geometry"/>
                </mxCell>
                <mxCell id="135" style="edgeStyle=orthogonalEdgeStyle;html=1;entryX=0;entryY=0;entryDx=0;entryDy=73;entryPerimeter=0;strokeWidth=3;fillColor=#1ba1e2;strokeColor=#006EAF;" parent="1" source="101" target="133" edge="1">
                    <mxGeometry relative="1" as="geometry"/>
                </mxCell>
                <mxCell id="101" value="React" style="shape=folder;fontStyle=1;tabWidth=110;tabHeight=30;tabPosition=left;html=1;boundedLbl=1;labelInHeader=1;container=1;collapsible=0;recursiveResize=0;" parent="1" vertex="1">
                    <mxGeometry x="720" y="1280" width="200" height="190" as="geometry"/>
                </mxCell>
                <mxCell id="31" value="Single Page App." style="shape=folder;fontStyle=1;tabWidth=140;tabHeight=40;tabPosition=left;html=1;boundedLbl=1;labelInHeader=1;container=1;collapsible=0;recursiveResize=0;fillColor=none;strokeColor=#006EAF;strokeWidth=3;fontColor=#ffffff;" parent="101" vertex="1">
                    <mxGeometry x="20" y="50" width="160" height="120" as="geometry"/>
                </mxCell>
                <mxCell id="42" style="edgeStyle=orthogonalEdgeStyle;html=1;fontColor=#F7F7F7;startArrow=none;startFill=0;endArrow=classic;endFill=1;strokeWidth=3;fillColor=#f8cecc;strokeColor=#b85450;exitX=0;exitY=0;exitDx=160;exitDy=80;exitPerimeter=0;" parent="1" source="32" edge="1">
                    <mxGeometry relative="1" as="geometry">
                        <mxPoint x="1290" y="1250" as="sourcePoint"/>
                        <mxPoint x="720" y="1390" as="targetPoint"/>
                        <Array as="points">
                            <mxPoint x="680" y="1150"/>
                            <mxPoint x="680" y="1390"/>
                        </Array>
                    </mxGeometry>
                </mxCell>
                <mxCell id="55" style="edgeStyle=orthogonalEdgeStyle;html=1;fontColor=#F7F7F7;startArrow=none;startFill=0;endArrow=classic;endFill=1;strokeWidth=3;elbow=vertical;fillColor=#1ba1e2;strokeColor=#006EAF;entryX=0;entryY=0;entryDx=0;entryDy=150;entryPerimeter=0;" parent="1" source="3" target="101" edge="1">
                    <mxGeometry relative="1" as="geometry">
                        <Array as="points">
                            <mxPoint x="640" y="840"/>
                            <mxPoint x="640" y="1430"/>
                        </Array>
                        <mxPoint x="800" y="1700" as="targetPoint"/>
                    </mxGeometry>
                </mxCell>
                <mxCell id="113" value="Wiki" style="shape=folder;fontStyle=1;tabWidth=120;tabHeight=40;tabPosition=left;html=1;boundedLbl=1;labelInHeader=1;container=1;collapsible=0;recursiveResize=0;fillColor=none;" parent="1" vertex="1">
                    <mxGeometry x="720" y="310" width="200" height="200" as="geometry"/>
                </mxCell>
                <mxCell id="18" value="Sketch" style="shape=folder;fontStyle=1;tabWidth=140;tabHeight=40;tabPosition=left;html=1;boundedLbl=1;labelInHeader=1;container=1;collapsible=0;recursiveResize=0;fillColor=none;fontColor=#F7F7F7;strokeColor=#F5CF00;strokeWidth=3;" parent="113" vertex="1">
                    <mxGeometry x="20" y="60" width="160" height="120" as="geometry"/>
                </mxCell>
                <mxCell id="114" value="Proxy" style="shape=folder;fontStyle=1;tabWidth=120;tabHeight=40;tabPosition=left;html=1;boundedLbl=1;labelInHeader=1;container=1;collapsible=0;recursiveResize=0;" parent="1" vertex="1">
                    <mxGeometry x="1390" y="1720" width="170" height="140" as="geometry"/>
                </mxCell>
                <mxCell id="116" value="Front-end Style Guide" style="shape=folder;fontStyle=1;tabWidth=140;tabHeight=40;tabPosition=left;html=1;boundedLbl=1;labelInHeader=1;container=1;collapsible=0;recursiveResize=0;" parent="1" vertex="1">
                    <mxGeometry x="1390" y="930" width="170" height="120" as="geometry"/>
                </mxCell>
                <mxCell id="117" value="Wordpress" style="shape=folder;fontStyle=1;tabWidth=140;tabHeight=40;tabPosition=left;html=1;boundedLbl=1;labelInHeader=1;container=1;collapsible=0;recursiveResize=0;" parent="1" vertex="1">
                    <mxGeometry x="1390" y="1090" width="170" height="120" as="geometry"/>
                </mxCell>
                <mxCell id="121" value="Static" style="shape=folder;fontStyle=1;tabWidth=140;tabHeight=40;tabPosition=left;html=1;boundedLbl=1;labelInHeader=1;container=1;collapsible=0;recursiveResize=0;" parent="1" vertex="1">
                    <mxGeometry x="1390" y="770" width="170" height="120" as="geometry"/>
                </mxCell>
                <mxCell id="33" value="Database" style="shape=folder;fontStyle=1;tabWidth=140;tabHeight=40;tabPosition=left;html=1;boundedLbl=1;labelInHeader=1;container=1;collapsible=0;recursiveResize=0;fillColor=none;strokeColor=#FFFFFF;strokeWidth=1;" parent="1" vertex="1">
                    <mxGeometry x="1370" y="1400" width="210" height="270" as="geometry"/>
                </mxCell>
                <mxCell id="56" value="SQL" style="shape=folder;fontStyle=1;tabWidth=140;tabHeight=40;tabPosition=left;html=1;boundedLbl=1;labelInHeader=1;container=1;collapsible=0;recursiveResize=0;fillColor=none;strokeColor=#6c8ebf;strokeWidth=3;" parent="33" vertex="1">
                    <mxGeometry x="19" y="60" width="161" height="90" as="geometry"/>
                </mxCell>
                <mxCell id="57" value="NoSQL" style="shape=folder;fontStyle=1;tabWidth=140;tabHeight=40;tabPosition=left;html=1;boundedLbl=1;labelInHeader=1;container=1;collapsible=0;recursiveResize=0;fillColor=none;strokeColor=#6c8ebf;strokeWidth=3;" parent="33" vertex="1">
                    <mxGeometry x="19" y="160" width="161" height="90" as="geometry"/>
                </mxCell>
                <mxCell id="133" value="React" style="shape=folder;fontStyle=1;tabWidth=110;tabHeight=30;tabPosition=left;html=1;boundedLbl=1;labelInHeader=1;container=1;collapsible=0;recursiveResize=0;" parent="1" vertex="1">
                    <mxGeometry x="1390" y="1244" width="170" height="116" as="geometry"/>
                </mxCell>
            </root>
        </mxGraphModel>
    </diagram>
</mxfile>